<?xml version="1.0" encoding="utf-8"?>
<!-- Generator: Adobe Illustrator 21.0.0, SVG Export Plug-In . SVG Version: 6.00 Build 0)  -->
<svg version="1.1" id="Layer_1" xmlns="http://www.w3.org/2000/svg" xmlns:xlink="http://www.w3.org/1999/xlink" x="0px" y="0px"
	 width="75px" height="90px" viewBox="0 0 75 90" style="enable-background:new 0 0 75 90;" xml:space="preserve">
<g>
	<path d="M55.4,47.5v2.3c0,0,3,0,4.2,0c0.9,0,2.4-0.6,2.4-2.4c0-0.1,0-0.8,0-0.9c0-1.5-1.2-2.4-2.4-2.4c-0.5,0-2.1,0-2.1,0V43h4.2
		v-2.2c0,0-2.9,0-4,0c-1,0-2.4,0.8-2.4,2.4c0,0.2,0,0.7,0,0.8c0,1.6,1.4,2.4,2.4,2.4c2.9,0-0.7,0,2,0c0,1.1,0,1.1,0,1.1"/>
	<path d="M32.7,46.8c0,0,2.3-0.2,2.3-3c0-2.9-2.8-3.1-2.8-3.1h-5v8.9h2.5v-2.1l2.2,2.2h3.7L32.7,46.8z M31.7,45.1h-2V43h2
		c0,0,0.6,0.2,0.6,1S31.7,45.1,31.7,45.1z"/>
	<path d="M41.1,40.8c-0.6,0-0.7,0-2.5,0s-2.4,1.6-2.4,2.4c0,1.6,0,6.6,0,6.6h2.5v-1.6h2.4v1.6h2.5c0,0,0-4.9,0-6.6
		C43.5,41.2,41.7,40.8,41.1,40.8z M41.1,45.6h-2.4v-2.2c0,0,0-0.5,0.8-0.5c0.7,0,0.1,0,0.9,0c0.7,0,0.7,0.5,0.7,0.5V45.6L41.1,45.6z
		"/>
	<rect x="44.7" y="40.8" width="2.6" height="8.9"/>
	<polygon points="50.9,47.3 50.9,40.8 48.3,40.8 48.3,47.3 48.3,49.8 50.9,49.8 54.5,49.8 54.5,47.3 	"/>
	<path d="M11.7,49.8h10.2c0,0-2-8.7,4.5-12.1c1.4-0.7,5.9-3.2,13.2,2.1c0.2-0.2,0.5-0.3,0.5-0.3s-6.8-6.6-14.2-5.8
		c-3.8,0.3-8.4,3.7-11.1,8.1C12.1,46,11.7,49.8,11.7,49.8z"/>
	<path d="M11.7,49.8h10.2c0,0-2-8.7,4.5-12.1c1.4-0.7,5.9-3.2,13.2,2.1c0.2-0.2,0.5-0.3,0.5-0.3s-6.8-6.6-14.2-5.8
		c-3.8,0.3-8.4,3.7-11.1,8.1C12.1,46,11.7,49.8,11.7,49.8z"/>
	<path d="M11.7,49.8h10.2c0,0-2-8.7,4.5-12.1c1.4-0.7,5.9-3.2,13.2,2.1c0.2-0.2,0.5-0.3,0.5-0.3s-6.8-6.6-14.2-5.8
		c-3.8,0.3-8.4,3.7-11.1,8.1C12.1,46,11.7,49.8,11.7,49.8z"/>
	<path d="M33,34.2l0.1-0.8c-0.1-0.1-0.4-0.2-1.3-0.4l-0.1,0.8C32.1,33.8,32.6,34,33,34.2z"/>
	<path d="M31.7,36.8l-0.1,0.8c0.4,0,0.9,0.1,1.3,0.2L33,37C32.6,36.8,32.2,36.8,31.7,36.8z"/>
	<path d="M27,32.8L27,32.8L26.8,32c-0.4,0-0.8,0-1.2,0.1l0.2,0.7C26.3,32.8,26.7,32.8,27,32.8z"/>
	<path d="M27.7,37.6l0.3,0.9c0.4-0.2,0.8-0.3,1.1-0.4l-0.3-0.8C28.4,37.3,28,37.3,27.7,37.6z"/>
	<path d="M21.8,34.2l-0.6-0.9c-0.3,0.2-0.7,0.3-1,0.5l0.6,0.9C21.1,34.6,21.4,34.3,21.8,34.2z"/>
	<path d="M24.4,39.8l0.6,0.9c0.2-0.3,0.5-0.6,0.8-0.9l-0.6-0.9C24.9,39.3,24.7,39.6,24.4,39.8z"/>
	<path d="M22.5,44l1.1,0.8c0.1-0.5,0.1-1,0.3-1.5L23,42.6C22.8,43.1,22.6,43.6,22.5,44z"/>
	<path d="M16.9,38L16,37.2c-0.3,0.3-0.7,0.6-1,0.9l1,0.8C16.2,38.7,16.5,38.3,16.9,38z"/>
	<path d="M12.9,43.7l-1.5-0.5c-0.2,0.5-0.5,1.2-0.7,1.5l1.5,0.5C12.4,44.7,12.7,44.1,12.9,43.7z"/>
	<path d="M22.3,47.2c0,0.7,0.1,1.2,0.2,1.6l1.6,0.5c-0.1-0.5-0.2-1.1-0.3-1.6L22.3,47.2z"/>
</g>
<g>
	<polygon points="831.8,43.5 831.8,44.6 830.7,44.6 830.7,45.8 831.8,45.8 831.8,46.8 833,46.8 833,45.8 834.1,45.8 834.1,44.6 
		833,44.6 833,43.5 	"/>
	<polygon points="835.9,46.8 837,46.8 837,45.8 838.1,45.8 838.1,44.6 837,44.6 837,43.5 835.9,43.5 835.9,44.6 834.8,44.6 
		834.8,45.8 835.9,45.8 	"/>
	<path d="M814.4,45.2c0,5.4,4.4,9.8,9.8,9.8c3.7,0,6.9-2,8.6-5l-4.3-2.5c-0.8,1.5-2.4,2.6-4.3,2.6c-2.7,0-4.8-2.2-4.8-4.8
		s2.2-4.8,4.8-4.8c1.8,0,3.4,1,4.2,2.5l4.3-2.5c-1.7-3-4.9-5-8.5-5C818.8,35.4,814.4,39.8,814.4,45.2z"/>
	<path d="M824.2,26.8l-16,9.2v18.5l16,9.2l16-9.2V36L824.2,26.8z M838.7,53.6L824.2,62l-14.5-8.4V36.9l14.5-8.4l14.5,8.4V53.6z"/>
</g>
</svg>
