<?xml version="1.0" encoding="utf-8"?>
<!-- Generator: Adobe Illustrator 21.0.0, SVG Export Plug-In . SVG Version: 6.00 Build 0)  -->
<svg version="1.1" id="Layer_1" xmlns="http://www.w3.org/2000/svg" xmlns:xlink="http://www.w3.org/1999/xlink" x="0px" y="0px"
	 width="75px" height="90px" viewBox="0 0 75 90" style="enable-background:new 0 0 75 90;" xml:space="preserve">
<g>
	<path d="M8.2,48.5c-4.7-2.8-2.5-6.9-2.5-6.9s-4,4.5,1.2,8.3c5.1,3.7,8.7-1.8,8.7-1.8S12.9,51.3,8.2,48.5z"/>
	<path d="M10.5,45.5c-3.4-2-1.7-5-1.7-5s-2.9,3.3,0.8,5.9c3.7,2.7,6.2-1.3,6.2-1.3S13.8,47.5,10.5,45.5z"/>
	<path d="M11.7,43.6c2.3,1.7,3.9-0.8,3.9-0.8s-1.2,1.4-3.3,0.2s-1.1-3.1-1.1-3.1S9.5,41.9,11.7,43.6z"/>
	<polygon points="21,43 23.4,43 23.9,41 21.4,41 	"/>
	<path d="M19.5,49.8c-0.4,1.2-1.8,1.1-1.8,1.1L17,53.2h1.9c1,0,2.1,0.2,3-3.4l1.4-6.2h-2.5L19.5,49.8z"/>
	<path d="M30.4,38.6c-5.3-0.1-6.1,5.5-6.1,5.5s-1.4,5.7,3.5,5.7H34l0.6-2.1h-1.3c0,0,1.1-2.3,1.2-3.4C34.6,43,35.4,38.7,30.4,38.6z
		 M31.8,44.3c-0.3,1-0.9,3.2-0.9,3.2h-2.2c0,0-2.8,0.2-1.7-3.2c1.1-3.5,2.1-3.5,3.6-3.5S32.3,42.5,31.8,44.3z"/>
	<path d="M41.9,41l-1.5,6.4h-1.5c-1.1-0.1-1.2-0.6-1-1.5l1-4.9h-2.3c0,0-0.7,3.1-1.2,5.5c-0.4,1.8,0.3,3.1,2.5,3.2h4.4l1.9-8.7
		C44.2,41,41.9,41,41.9,41z"/>
	<path d="M49.7,40.8c-0.9,0-4.5-0.4-5.6,4.2c-1.5,5.1,3.4,4.7,3.4,4.7h3.7l0.5-2h-3c0,0-1.7,0.2-2.3-0.6c-0.4-0.6,0.2-1,0.2-1h5.5
		C52.1,46,53.9,40.8,49.7,40.8z M50.3,44.3l-3.5-0.1c0,0,0.3-1.2,2-1.2C50.6,42.9,50.3,44.3,50.3,44.3z"/>
	<path d="M59.9,41h-4.7c-0.8,0-0.9,0.6-0.9,0.6l-1.6,8.1h2.4l1.4-6.5h5.3C61.7,43,61.7,41,59.9,41z"/>
	<path d="M66.1,39.6l-3.9,5.3l-0.5-1.2h-2.5c0,0,0.9,3.5,1,3.7c0.2,0.9-0.3,2.4-0.3,2.4h2.5c0,0,0.2-1.5,1.2-2.9l5.2-7L66.1,39.6
		L66.1,39.6z"/>
</g>
</svg>
