<?xml version="1.0" encoding="utf-8"?>
<!-- Generator: Adobe Illustrator 21.0.0, SVG Export Plug-In . SVG Version: 6.00 Build 0)  -->
<svg version="1.1" id="Layer_1" xmlns="http://www.w3.org/2000/svg" xmlns:xlink="http://www.w3.org/1999/xlink" x="0px" y="0px"
	 width="75px" height="90px" viewBox="0 0 75 90" style="enable-background:new 0 0 75 90;" xml:space="preserve">
<g>
	<g transform="translate(0.738281, 121.593)">
		<path d="M8.9-71.9h1.9v-7.5l3,6.6c0.4,0.8,0.8,1.1,1.8,1.1c0.9,0,1.4-0.3,1.8-1.1l3-6.6v7.5h1.9v-7.5c0-0.7-0.3-1.1-0.9-1.3
			c-1.5-0.5-2.5-0.1-2.9,0.9l-2.9,6.5l-2.8-6.5c-0.4-1-1.4-1.4-2.9-0.9C9.3-80.5,9-80.2,9-79.4C8.9-79.4,8.9-71.9,8.9-71.9z"/>
	</g>
	<g transform="translate(100.444, 142.416)">
		<path d="M-76-99h1.9v4.1c0,0.2,0.1,0.8,1.1,0.8c0.5,0,4.1,0,4.1,0V-99h1.9c0,0,0,6.7,0,6.8c0,1.7-2.1,2.1-3.1,2.1h-6v-1.3h6
			c1.2-0.1,1.1-0.8,1.1-1v-0.5h-4c-1.9,0-3.1-0.9-3.1-1.8C-76-94.7-76-98.9-76-99z"/>
	</g>
	<g transform="translate(308.656, 124.557)">
		<path d="M-253.3-77.1c0,1.3,1,2.1,3,2.2c0.2,0,0.4,0,0.6,0h4.9v-1.3h-5c-1.1,0-1.6-0.3-1.6-1v-6.6h-1.9V-77.1z"/>
	</g>
	<g transform="translate(236.74, 124.666)">
		<path d="M-192.1-77.2v-4.5c0-1.2,0.8-1.9,2.4-2.1c0.2,0,0.4,0,0.5,0h3.6c0.2,0,0.4,0,0.5,0c1.6,0.2,2.4,0.9,2.4,2.1v4.5
			c0,0.9-0.3,1.5-1.2,1.8l1.9,1.7h-2.2l-1.5-1.4l-1.6,0.1h-2.1c-0.4,0-0.7-0.1-1.1-0.2C-191.5-75.5-192.1-76.1-192.1-77.2z
			 M-190-77.3c0,0.1,0,0.1,0,0.2c0.1,0.5,0.6,0.8,1.4,0.8h1.8l-1.6-1.5h2.2l1.4,1.3c0.3-0.1,0.4-0.3,0.5-0.6c0-0.1,0-0.1,0-0.2v-4.3
			c0-0.1,0-0.1,0-0.2c-0.1-0.5-0.6-0.8-1.4-0.8h-2.9c-0.9,0-1.4,0.4-1.4,1V-77.3L-190-77.3z"/>
	</g>
	<g transform="translate(241.59, -4.64258)">
		<path d="M-176.1,43.4c-1.2,0-2.1,0.1-2.9,0.4c-0.2,0.1-0.6,0.1-0.6,0.4c0.1,0.1,0.1,0.3,0.2,0.5c0.2,0.3,0.5,0.7,0.8,0.9
			s0.6,0.5,0.9,0.7c0.6,0.4,1.2,0.6,1.8,0.9c0.3,0.2,0.7,0.5,1,0.7c0.2,0.1,0.3,0.3,0.5,0.4l0,0c-0.1-0.1-0.1-0.3-0.2-0.5
			c-0.1-0.1-0.3-0.3-0.4-0.4c-0.4-0.6-1-1.1-1.6-1.5c-0.5-0.3-1.5-0.8-1.7-1.3l0,0c0.3,0,0.7-0.2,1-0.2c0.5-0.1,1-0.1,1.5-0.2
			c0.2-0.1,0.5-0.1,0.7-0.2v-0.1c-0.3-0.3-0.5-0.6-0.7-0.9c-0.8-0.6-1.6-1.3-2.4-1.8c-0.5-0.3-1.1-0.5-1.6-0.7
			c-0.2-0.1-0.5-0.1-0.6-0.3c-0.3-0.3-0.4-0.8-0.6-1.1c-0.4-0.8-0.8-1.7-1.2-2.6c-0.3-0.6-0.4-1.2-0.7-1.7c-1.5-2.5-3.2-3.9-5.6-5.4
			c-0.5-0.3-1.2-0.4-1.9-0.6c-0.4,0-0.7,0-1.1-0.1c-0.2-0.1-0.5-0.4-0.7-0.5c-0.8-0.5-3-1.7-3.6-0.2c-0.4,1,0.6,1.9,0.9,2.4
			c0.2,0.3,0.6,0.7,0.7,1.1c0.1,0.3,0.1,0.5,0.2,0.8c0.2,0.7,0.5,1.4,0.8,2c0.2,0.3,0.3,0.6,0.5,0.9c0.1,0.2,0.3,0.2,0.4,0.5
			c-0.2,0.3-0.2,0.7-0.3,1.1c-0.5,1.7-0.3,3.6,0.4,4.9c0.2,0.4,0.8,1.2,1.6,0.9c0.7-0.3,0.5-1.1,0.7-1.9c0-0.2,0-0.3,0.1-0.4l0,0
			c0.2,0.4,0.4,0.8,0.6,1.2c0.5,0.7,1.2,1.5,1.9,2c0.4,0.3,0.6,0.7,1.1,0.9l0,0l0,0c-0.1-0.1-0.2-0.2-0.3-0.3
			c-0.3-0.3-0.6-0.6-0.8-0.9c-0.6-0.8-1.2-1.8-1.7-2.7c-0.2-0.5-0.4-1-0.6-1.4c-0.1-0.2-0.1-0.5-0.2-0.5c-0.2,0.3-0.5,0.6-0.7,1
			c-0.3,0.6-0.3,1.4-0.4,2.2c-0.1,0,0,0-0.1,0c-0.5-0.1-0.6-0.6-0.8-1c-0.4-1.1-0.5-2.7-0.1-3.9c0.1-0.3,0.6-1.3,0.4-1.6
			c-0.1-0.3-0.4-0.5-0.5-0.7c-0.2-0.3-0.4-0.6-0.5-0.9c-0.4-0.8-0.5-1.7-0.9-2.6c-0.2-0.4-0.5-0.8-0.7-1.2c-0.3-0.4-0.6-0.7-0.8-1.1
			c-0.1-0.2-0.2-0.4-0.1-0.6c0-0.1,0.1-0.2,0.2-0.2c0.2-0.2,0.7,0.1,0.9,0.1c0.5,0.2,1,0.4,1.5,0.7c0.2,0.1,0.4,0.4,0.7,0.5
			c0.1,0,0.2,0,0.3,0c0.5,0.1,1,0,1.5,0.2c0.8,0.2,1.5,0.6,2.1,1c1.9,1.2,3.5,3,4.5,5c0.2,0.3,0.3,0.7,0.4,1c0.3,0.7,0.7,1.5,1,2.2
			s0.6,1.4,1,2c0.2,0.3,1.1,0.5,1.5,0.6c0.3,0.1,0.7,0.2,1,0.4c0.5,0.3,1,0.7,1.5,1C-176.8,42.7-176.1,43-176.1,43.4z"/>
	</g>
	<g transform="translate(272.504, 24.8027)">
		<path d="M-221.9,1.2c-0.2,0-0.4,0-0.6,0.1l0,0l0,0c0.1,0.2,0.3,0.4,0.5,0.6c0.1,0.2,0.2,0.5,0.3,0.7l0,0c0.2-0.1,0.3-0.4,0.3-0.7
			c-0.1-0.1-0.1-0.2-0.2-0.3C-221.6,1.4-221.8,1.3-221.9,1.2z"/>
	</g>
	<g transform="translate(171.496, 124.557)">
		<path d="M-136.8-74.9h5.5c0.6,0,1.3-0.1,1.8-0.4c0.8-0.4,1.2-0.9,1.2-1.6v-1.4c0-0.6-0.5-1.1-1.4-1.4c-0.5-0.2-1.1-0.3-1.7-0.3
			h-2.3c-0.8,0-1.2-0.2-1.2-0.8c0-0.1,0-0.1,0-0.2v-0.9c0,0,0-0.1,0-0.2c0.1-0.4,0.3-0.5,1-0.6c0.1,0,0.1,0,0.2,0h5.4V-84h-5.3
			c-0.8,0-1.2,0.1-1.6,0.2c-1.2,0.4-1.7,0.9-1.7,1.9v1.1c0,0.9,1,1.6,2.6,1.8c0.2,0,0.4,0,0.6,0h2c0.1,0,0.1,0,0.2,0
			c0.6,0.1,0.9,0.2,1.1,0.4c0.1,0.1,0.1,0.2,0.1,0.3v1.1c0,0.1-0.1,0.3-0.3,0.5s-0.4,0.2-0.8,0.3c-0.1,0-0.1,0-0.2,0h-5.2
			L-136.8-74.9L-136.8-74.9z"/>
	</g>
</g>
</svg>
