<?xml version="1.0" encoding="utf-8"?>
<!-- Generator: Adobe Illustrator 21.0.0, SVG Export Plug-In . SVG Version: 6.00 Build 0)  -->
<svg version="1.1" id="Layer_1" xmlns="http://www.w3.org/2000/svg" xmlns:xlink="http://www.w3.org/1999/xlink" x="0px" y="0px"
	 width="75px" height="90px" viewBox="0 0 75 90" style="enable-background:new 0 0 75 90;" xml:space="preserve">
<g>
	<path d="M44.8,51.7c-0.5,0-0.9,0.4-0.9,1s0.4,1,0.9,1c0.6,0,0.9-0.4,0.9-1C45.7,52.1,45.4,51.7,44.8,51.7z"/>
	<path d="M54.1,47.2c0,1.6,0,2.9,0.2,4.3l0,0c-0.5-1.1-1.1-2.2-1.9-3.4L49,42.8h-1.5v10.6h1.3v-4.5c0-1.8,0-3-0.1-4.4l0,0
		c0.5,1.1,1.2,2.4,2,3.5l3.4,5.4h1.4V42.8h-1.4C54.1,42.8,54.1,47.2,54.1,47.2z"/>
	<polygon points="59,48.4 63.1,48.4 63.1,47.3 59,47.3 59,43.9 63.3,43.9 63.3,42.8 57.6,42.8 57.6,53.3 63.6,53.3 63.6,52.2 
		59,52.2 	"/>
	<polygon points="64.5,43.9 67.7,43.9 67.7,53.3 69.1,53.3 69.1,43.9 72.3,43.9 72.3,42.8 64.5,42.8 	"/>
	<path d="M47.7,39.6c0-0.5,0-1,0-1.6l0,0c0.1,0.4,0.3,0.8,0.4,1.1l1.1,2.5h0.2l1.1-2.5c0.1-0.3,0.3-0.7,0.4-1.1l0,0
		c0,0.6,0,1.1,0,1.6v2h0.5v-4.2h-0.7l-1,2.4c-0.1,0.2-0.2,0.6-0.4,1l0,0c-0.1-0.4-0.3-0.7-0.4-1l-1-2.4h-0.7v4.2h0.5L47.7,39.6
		L47.7,39.6z"/>
	<rect x="52.5" y="37.4" width="0.5" height="0.5"/>
	<rect x="52.5" y="38.7" width="0.5" height="3"/>
	<path d="M55.3,41.3c-0.2,0-0.3,0-0.4-0.1c-0.1-0.1-0.2-0.1-0.3-0.2c-0.1-0.1-0.1-0.2-0.2-0.4c0-0.1-0.1-0.3-0.1-0.4
		c0-0.2,0-0.4,0.1-0.6c0.1-0.2,0.1-0.3,0.2-0.4c0.1-0.1,0.2-0.2,0.3-0.2s0.2-0.1,0.4-0.1c0.1,0,0.2,0,0.3,0S55.8,39,56,39v-0.4
		c-0.1-0.1-0.2-0.1-0.3-0.1s-0.3,0-0.4,0c-0.1,0-0.2,0-0.3,0s-0.2,0.1-0.3,0.1c-0.1,0.1-0.2,0.1-0.3,0.2c-0.1,0.1-0.2,0.2-0.3,0.3
		s-0.1,0.3-0.2,0.4s-0.1,0.3-0.1,0.5c0,0.3,0,0.5,0.1,0.7s0.2,0.4,0.3,0.5s0.3,0.2,0.5,0.3s0.4,0.1,0.6,0.1c0.1,0,0.2,0,0.2,0
		c0.1,0,0.2,0,0.2,0c0.1,0,0.1,0,0.2-0.1s0.1,0,0.1-0.1V41c-0.1,0-0.2,0.1-0.4,0.1C55.6,41.3,55.4,41.3,55.3,41.3z"/>
	<path d="M58.4,39.1v-0.5c0,0,0,0-0.1,0c0,0,0,0-0.1,0s-0.2,0-0.3,0s-0.2,0.1-0.3,0.1c-0.1,0.1-0.2,0.1-0.2,0.2
		c-0.1,0.1-0.1,0.1-0.2,0.2l0,0l-0.1-0.5h-0.4v3h0.5v-2.1c0.1-0.1,0.1-0.2,0.2-0.2c0.1-0.1,0.2-0.1,0.3-0.2c0.1,0,0.2-0.1,0.3-0.1
		C58.2,39.1,58.3,39.1,58.4,39.1L58.4,39.1L58.4,39.1z"/>
	<path d="M60.8,38.7c-0.2-0.1-0.4-0.1-0.6-0.1c-0.2,0-0.4,0-0.6,0.1c-0.2,0.1-0.3,0.2-0.4,0.3c-0.1,0.1-0.2,0.3-0.3,0.5
		s-0.1,0.4-0.1,0.6c0,0.2,0,0.5,0.1,0.6c0.1,0.2,0.2,0.4,0.3,0.5s0.3,0.2,0.4,0.3c0.2,0.1,0.4,0.1,0.6,0.1c0.2,0,0.4,0,0.6-0.1
		c0.2-0.1,0.3-0.2,0.4-0.3c0.1-0.1,0.2-0.3,0.3-0.5s0.1-0.4,0.1-0.6c0-0.2,0-0.5-0.1-0.6c-0.1-0.2-0.2-0.4-0.3-0.5
		C61.1,38.9,61,38.8,60.8,38.7z M61.1,40.7c0,0.1-0.1,0.3-0.2,0.4c-0.1,0.1-0.2,0.2-0.3,0.2c-0.1,0.1-0.2,0.1-0.4,0.1
		s-0.3,0-0.4-0.1c-0.1-0.1-0.2-0.1-0.3-0.2c-0.1-0.1-0.1-0.2-0.2-0.4c0-0.1-0.1-0.3-0.1-0.5s0-0.3,0.1-0.5c0-0.1,0.1-0.3,0.2-0.4
		c0.1-0.1,0.2-0.2,0.3-0.2C59.9,39,60,39,60.2,39c0.1,0,0.3,0,0.4,0.1c0.1,0.1,0.2,0.1,0.3,0.2c0.1,0.1,0.1,0.2,0.2,0.4
		c0,0.1,0.1,0.3,0.1,0.5C61.1,40.4,61.1,40.5,61.1,40.7z"/>
	<path d="M63.6,41.2c-0.1,0-0.1,0.1-0.2,0.1c-0.1,0-0.2,0-0.3,0s-0.3,0-0.4,0c-0.1,0-0.2-0.1-0.4-0.1v0.4c0,0,0.1,0,0.1,0.1
		s0.1,0,0.2,0.1c0.1,0,0.1,0,0.2,0c0.1,0,0.2,0,0.3,0c0.2,0,0.3,0,0.5-0.1c0.1,0,0.3-0.1,0.4-0.2c0.1-0.1,0.2-0.2,0.2-0.3
		c0.1-0.1,0.1-0.3,0.1-0.4c0-0.2,0-0.3-0.1-0.4c-0.1-0.1-0.1-0.2-0.2-0.2c-0.1-0.1-0.2-0.1-0.3-0.1S63.5,40,63.4,40s-0.2,0-0.2-0.1
		c-0.1,0-0.1,0-0.2-0.1c-0.1,0-0.1-0.1-0.1-0.1c0-0.1-0.1-0.1-0.1-0.2c0-0.1,0-0.1,0-0.2c0-0.1,0.1-0.1,0.1-0.1
		c0.1,0,0.1-0.1,0.2-0.1s0.2,0,0.3,0s0.3,0,0.4,0c0.1,0,0.3,0.1,0.4,0.1v-0.4c-0.1,0-0.2-0.1-0.4-0.1c-0.1,0-0.3,0-0.5,0
		c-0.1,0-0.3,0-0.4,0.1c-0.1,0-0.2,0.1-0.3,0.2c-0.1,0.1-0.2,0.2-0.2,0.3c-0.1,0.1-0.1,0.3-0.1,0.4c0,0.2,0,0.3,0.1,0.4
		c0.1,0.1,0.1,0.2,0.2,0.2s0.2,0.1,0.3,0.1s0.2,0.1,0.3,0.1s0.2,0,0.2,0.1c0.1,0,0.1,0.1,0.2,0.1c0.1,0,0.1,0.1,0.1,0.1s0,0.1,0,0.2
		S63.7,41.2,63.6,41.2C63.7,41.1,63.6,41.2,63.6,41.2z"/>
	<path d="M66.3,41.8c0.2,0,0.4,0,0.6-0.1s0.3-0.2,0.4-0.3s0.2-0.3,0.3-0.5s0.1-0.4,0.1-0.6c0-0.2,0-0.5-0.1-0.6
		c-0.1-0.2-0.2-0.4-0.3-0.5S67,39,66.9,38.9s-0.4-0.1-0.6-0.1s-0.4,0-0.6,0.1s-0.3,0.2-0.4,0.3s-0.2,0.3-0.3,0.5s-0.1,0.4-0.1,0.6
		c0,0.2,0,0.5,0.1,0.6c0.1,0.2,0.2,0.4,0.3,0.5s0.3,0.2,0.4,0.3C65.9,41.7,66.1,41.8,66.3,41.8z M65.4,40.7c0-0.1-0.1-0.3-0.1-0.5
		s0-0.3,0.1-0.5c0-0.1,0.1-0.3,0.2-0.4c0.1-0.1,0.2-0.2,0.3-0.2C66,39,66.1,39,66.3,39s0.3,0,0.4,0.1s0.2,0.1,0.3,0.2
		c0.1,0.1,0.1,0.2,0.2,0.4c0,0.1,0.1,0.3,0.1,0.5s0,0.3-0.1,0.5c0,0.1-0.1,0.3-0.2,0.4c-0.1,0.1-0.2,0.2-0.3,0.2
		c-0.1,0.1-0.2,0.1-0.4,0.1s-0.3,0-0.4-0.1s-0.2-0.1-0.3-0.2C65.5,40.9,65.5,40.8,65.4,40.7z"/>
	<path d="M69.7,37c-0.2,0-0.3,0-0.4,0.1c-0.1,0-0.3,0.1-0.4,0.2c-0.1,0.1-0.2,0.2-0.2,0.4c-0.1,0.1-0.1,0.3-0.1,0.5v0.5h-0.5v0.4
		h0.5v2.6h0.5v-2.6H70v-0.4h-0.9v-0.5c0-0.1,0-0.3,0-0.4s0.1-0.2,0.1-0.2c0.1-0.1,0.1-0.1,0.2-0.1s0.2,0,0.3,0s0.1,0,0.2,0
		s0.1,0,0.2,0v-0.4c0,0-0.1,0-0.2,0C69.9,37,69.8,37,69.7,37z"/>
	<path d="M70.7,38v0.7h-0.6v0.4h0.6v1.8c0,0.1,0,0.2,0.1,0.3c0,0.1,0.1,0.2,0.2,0.3s0.2,0.1,0.3,0.2c0.1,0,0.3,0.1,0.4,0.1
		s0.2,0,0.3,0s0.2,0,0.2,0v-0.4c-0.1,0-0.1,0-0.2,0s-0.1,0-0.2,0s-0.2,0-0.2,0c-0.1,0-0.1-0.1-0.2-0.1c0,0-0.1-0.1-0.1-0.2
		c0-0.1,0-0.1,0-0.2v-1.8h0.9v-0.4h-0.9v-1L70.7,38z"/>
	<path d="M8.3,39.9C2.7,46,0.9,53.8,0.9,53.8h1C1.4,52.2,3.7,45.7,8.3,39.9z"/>
	<path d="M15.3,38.4c0.1,0.1,0.6,0.5,0.7,0.8c1.7-1.6,3.3-1.9,5.1-1.2C14.3,35.5,9.9,51.9,7.5,53.2c2.4-1.2,6.4-11.9,8.9-13.4
		c0.2,0.4,0.8,1.5,1.1,2.3c1.6,4.5,3.5,11.7,6.1,11.7c4.2,0,6.6,0,6.6,0s-3.1-1.8-4.6-5.3C23.7,43.9,23,37.3,20,37.1
		C17.4,36.7,15.6,38.2,15.3,38.4c-0.1-0.2-1.4-1.6-3.2-1.4c-3.5,0.3-5.2,6.6-6.9,11.4c-0.8,2.1-2.8,5.3-2.8,5.3h2.3
		c3.6,0,4.7-6.7,6.5-9.9C13.7,39.3,15.1,38.5,15.3,38.4z"/>
	<path d="M31.9,47.4c-1.1,2.6-2.1,3.5-2.7,3.6c1.3,1.6,2.1,2,2.3,2.1c-3.2-0.9-4.6-7.4-6-11.4c0.6,2.2,1.1,5.4,3.1,9.3
		c-0.5,0-1.1-0.2-1.1-0.2s5.6,6.5,8.8-0.5c1.5-3.3,2.7-13.1,6-13.5h-5C34.8,36.9,33.7,43,31.9,47.4z"/>
	<path d="M25.6,41.9c-0.3-1.2-0.7-2.1-1.3-2.7C24.8,39.7,25.2,40.7,25.6,41.9z"/>
	<path d="M22.5,53.7c0,0-1.7,0-3.2-2.5c-1.4-2.3-2.2-8.2-3-8.7c0.9,1.8,0.5,4.7,2.1,7.9C20,53.7,22.5,53.7,22.5,53.7z"/>
	<path d="M42.4,36.9c0,0-3,2.6-3.3,8.1c0.8-5.6,4.3-8.1,4.3-8.1H42.4z"/>
	<path d="M36.1,36.9h-2.5c-1.9,0-3.3,10.6-4.6,11.5C30.4,47.6,32.3,37.4,36.1,36.9z"/>
</g>
</svg>
