<?xml version="1.0" encoding="utf-8"?>
<!-- Generator: Adobe Illustrator 21.0.0, SVG Export Plug-In . SVG Version: 6.00 Build 0)  -->
<svg version="1.1" id="Layer_1" xmlns="http://www.w3.org/2000/svg" xmlns:xlink="http://www.w3.org/1999/xlink" x="0px" y="0px"
	 width="75px" height="90px" viewBox="0 0 75 90" style="enable-background:new 0 0 75 90;" xml:space="preserve">
<g>
	<g>
		<g>
			<path d="M37,45.3c0,1.3-0.6,2.3-1.8,2.3c-1.3,0-1.8-1-1.8-2.3V41h-2.2v4.3c0,2.5,1.6,4.5,4.1,4.5c2.4,0,4.1-2,4.1-4.5V41h-2.3
				L37,45.3z"/>
		</g>
		<g>
			<rect x="60.1" y="38.4" width="2.2" height="11.2"/>
		</g>
		<g>
			<path d="M25.9,42.5C25.9,42.6,25.9,42.6,25.9,42.5c-0.2,0.1-0.2,0-0.2,0L25.4,41h-2.1v8.4h2.3v-4.6c0-0.4,1-2.2,3-1.8
				c1,0.2,1.5,0.7,1.5,0.7s0-1.7,0-2.5c-0.4-0.2-0.6-0.3-1-0.4C27.2,40.5,26,42.3,25.9,42.5z"/>
		</g>
		<g>
			<path d="M44.6,40.9c-2.5,0-4.5,2.1-4.5,4.5c0,0,0,6.2,0,7h2.3v-3v-1.2c0,0,0-0.1,0.1-0.1s0.1,0.1,0.1,0.1
				c0.2,0.4,1.2,2.1,3.2,1.6c1.9-0.5,3.3-2.3,3.3-4.3C49.2,42.8,47.2,40.9,44.6,40.9z M44.6,47.6c-1.3,0-2.2-1-2.2-2.3
				s1-2.3,2.2-2.3s2.2,1,2.2,2.3C47,46.6,45.9,47.6,44.6,47.6z"/>
		</g>
		<g>
			<path d="M54.6,40.9c-2.5,0-4.5,2.1-4.5,4.5c0,2.1,1.4,3.8,3.3,4.3c2.2,0.5,3.1-1.1,3.2-1.6c0,0,0-0.1,0.1-0.1s0.1,0.1,0.1,0.1
				v1.4h2.3v-4.2C59.1,42.8,57,40.9,54.6,40.9z M54.6,47.6c-1.3,0-2.2-1-2.2-2.3s1.1-2.3,2.2-2.3c1.3,0,2.2,1,2.2,2.3
				S55.9,47.6,54.6,47.6z"/>
		</g>
		<g>
			<path d="M16.5,38.4h-2.8v11.1h2.6c3.4,0,6.2-0.7,6.2-5.6S19.9,38.4,16.5,38.4z M16.9,47.5h-1v-7.3h0.9c2.2,0,3.2,0.3,3.2,3.6
				C20.1,47.4,18.8,47.5,16.9,47.5z"/>
		</g>
	</g>
	<g>
		<g>
			<ellipse cx="36.7" cy="24.2" rx="4.8" ry="4.8"/>
		</g>
		<g>
			<path d="M42.7,18.5c1.5,1.6,2.4,3.6,2.4,5.8c0,2.8-1.5,5.4-3.6,6.8c4-1.3,7.3-4.3,8.8-7.9c2.1-5,0.2-8.9-3.1-12.3
				c0.1,0.5,0.2,0.9,0.2,1.4C47.3,15.2,45.4,17.6,42.7,18.5z"/>
		</g>
		<g>
			<ellipse cx="41" cy="12.3" rx="3.7" ry="3.7"/>
		</g>
		<g>
			<path d="M30.3,29.7c-1.2-1.5-2-3.4-2-5.4c0-4.3,3.2-7.9,7.4-8.3c-0.7-1-1.1-2.3-1.1-3.7C34.6,8.8,37.4,6,41,6
				c0.3,0,0.5,0,0.8,0.1c-2.1-1.8-4.2-3.7-5.8-5.7c0.8,8.8-8,5.6-11.3,13.7C22.5,19.4,24.5,26.1,30.3,29.7z"/>
		</g>
	</g>
</g>
</svg>
