<?xml version="1.0" encoding="utf-8"?>
<!-- Generator: Adobe Illustrator 21.0.0, SVG Export Plug-In . SVG Version: 6.00 Build 0)  -->
<svg version="1.1" id="Layer_1" xmlns="http://www.w3.org/2000/svg" xmlns:xlink="http://www.w3.org/1999/xlink" x="0px" y="0px"
	 width="75px" height="90px" viewBox="0 0 75 90" style="enable-background:new 0 0 75 90;" xml:space="preserve">
<g id="g16337">
	<path id="path16197" d="M33,46.6h4.5l-2.4-3.8l-4.4,6.9h-2l5.3-8.3c0.2-0.3,0.6-0.5,1-0.5s0.8,0.2,1,0.5l5.4,8.4h-2l-0.9-1.6h-4.6
		L33,46.6z M53.7,48.1v-7.3H52v8c0,0.2,0.1,0.4,0.2,0.6c0.2,0.2,0.4,0.3,0.6,0.3h7.7l1-1.6H53.7L53.7,48.1z M25.7,46.8
		c1.6,0,3-1.3,3-3c0-1.6-1.3-3-3-3h-7.4v8.8H20v-7.3h5.6c0.8,0,1.4,0.6,1.4,1.4c0,0.8-0.6,1.4-1.4,1.4h-4.8l5.1,4.4h2.5L25,46.6
		C24.9,46.8,25.7,46.8,25.7,46.8z M7.9,49.7c-2.4,0-4.4-2-4.4-4.4s2-4.4,4.4-4.4H13c2.4,0,4.4,2,4.4,4.4s-2,4.4-4.4,4.4H7.9z
		 M12.9,48.1c1.6,0,2.9-1.3,2.9-2.8c0-1.6-1.3-2.9-2.9-2.9H8c-1.6,0-2.8,1.3-2.8,2.9c0,1.6,1.3,2.8,2.8,2.8H12.9z M45,49.7
		c-2.4,0-4.4-2-4.4-4.4s2-4.4,4.4-4.4h6.1l-1,1.6h-5c-1.6,0-2.9,1.3-2.9,2.9c0,1.6,1.3,2.8,2.9,2.8h6.1l-1,1.6L45,49.7L45,49.7z
		 M65.7,48.1c-1.3,0-2.4-0.9-2.7-2.1h7.2l1-1.6H63c0.3-1.2,1.4-2.1,2.7-2.1h5l1-1.6h-6.1c-2.4,0-4.4,2-4.4,4.4s2,4.4,4.4,4.4h5.2
		l1-1.6L65.7,48.1"/>
</g>
</svg>
