<?xml version="1.0" encoding="utf-8"?>
<!-- Generator: Adobe Illustrator 21.0.0, SVG Export Plug-In . SVG Version: 6.00 Build 0)  -->
<svg version="1.1" id="Layer_1" xmlns="http://www.w3.org/2000/svg" xmlns:xlink="http://www.w3.org/1999/xlink" x="0px" y="0px"
	 width="75px" height="90px" viewBox="0 0 75 90" style="enable-background:new 0 0 75 90;" xml:space="preserve">
<g>
	<path d="M36.1,58.7c0.6,0.3,1.3,0.5,2.2,0.5c0.6,0,1.2-0.1,1.6-0.3c0.5-0.2,0.8-0.5,1.1-0.8c0.3-0.4,0.5-0.8,0.7-1.3
		c0.1-0.5,0.2-1,0.2-1.5v-7.5h-2.6v7.3c0,0.7-0.1,1.3-0.4,1.5c-0.2,0.3-0.6,0.4-1.1,0.4c-0.3,0-0.6-0.1-0.9-0.3
		c-0.3-0.2-0.5-0.5-0.7-0.8l-1.7,1.3C35.1,57.9,35.6,58.4,36.1,58.7z"/>
	<path d="M49.4,56.8c-0.3,0.2-0.7,0.3-1.2,0.3s-1-0.1-1.5-0.3s-0.9-0.5-1.4-0.8l-1.5,1.7c0.6,0.5,1.2,0.9,2,1.2
		c0.7,0.3,1.5,0.4,2.2,0.4s1.3-0.1,1.8-0.3s1-0.4,1.4-0.8c0.4-0.3,0.6-0.7,0.8-1.1s0.3-0.9,0.3-1.3c0-0.8-0.2-1.4-0.6-1.9
		c-0.4-0.5-1-0.9-1.6-1.1l-1.5-0.6c-0.2-0.1-0.5-0.2-0.7-0.3s-0.4-0.2-0.5-0.3c-0.2-0.1-0.3-0.2-0.4-0.3c-0.1-0.1-0.1-0.3-0.1-0.4
		c0-0.3,0.1-0.6,0.4-0.7c0.3-0.2,0.6-0.3,1.1-0.3s0.9,0.1,1.2,0.2c0.4,0.2,0.7,0.4,1.1,0.7l1.3-1.6c-0.5-0.5-1.1-0.8-1.7-1.1
		c-0.6-0.3-1.3-0.4-2-0.4c-0.6,0-1.1,0.1-1.6,0.3s-0.9,0.4-1.3,0.7c-0.4,0.3-0.6,0.7-0.8,1.1c-0.2,0.4-0.3,0.8-0.3,1.3
		c0,0.4,0.1,0.8,0.2,1.1c0.1,0.3,0.3,0.6,0.5,0.9c0.2,0.2,0.5,0.5,0.7,0.6c0.3,0.2,0.6,0.3,0.8,0.4l1.5,0.6c0.2,0.1,0.5,0.2,0.7,0.3
		s0.4,0.2,0.5,0.3s0.3,0.2,0.3,0.3c0.1,0.1,0.1,0.3,0.1,0.4C49.7,56.3,49.6,56.6,49.4,56.8z"/>
	<path d="M19.3,26.9v36.7h37.2V26.9H19.3z M54.7,61.9H21V28.7h33.7V61.9z"/>
</g>
</svg>
