<?xml version="1.0" encoding="utf-8"?>
<!-- Generator: Adobe Illustrator 21.0.0, SVG Export Plug-In . SVG Version: 6.00 Build 0)  -->
<svg version="1.1" id="Layer_1" xmlns="http://www.w3.org/2000/svg" xmlns:xlink="http://www.w3.org/1999/xlink" x="0px" y="0px"
	 width="75px" height="90px" viewBox="0 0 75 90" style="enable-background:new 0 0 75 90;" xml:space="preserve">
<path d="M13.3,36.6h8.9c2.6,0,4.5,0.8,5.7,2.2s1.6,3.5,1.2,6c-0.2,1.2-0.5,2.3-1,3.4s-1.2,2.1-2.1,3c-1.1,1.1-2.3,1.9-3.6,2.2
	c-1.3,0.3-2.6,0.5-3.9,0.5h-4l-1.3,6.2H8.6L13.3,36.6L13.3,36.6 M17.2,40.3l-2,9.8c0.1,0,0.3,0,0.4,0c0.2,0,0.3,0,0.5,0
	c2.1,0,3.9-0.2,5.3-0.6c1.4-0.5,2.4-2.1,2.9-4.8c0.4-2.3,0-3.6-1.2-4c-1.2-0.3-2.6-0.5-4.4-0.5c-0.3,0-0.5,0-0.8,0
	C17.7,40.3,17.4,40.3,17.2,40.3L17.2,40.3"/>
<path d="M34.3,30.3h4.6l-1.3,6.3h4.1c2.3,0,3.9,0.5,5,1.4s1.5,2.5,1,5l-2.2,11h-4.6L43,43.5c0.2-1.1,0.2-1.9-0.2-2.3
	c-0.4-0.5-1.1-0.7-2.3-0.7h-3.7L34.1,54h-4.6L34.3,30.3L34.3,30.3"/>
<path d="M52.7,36.6h8.9c2.6,0,4.5,0.8,5.7,2.2c1.2,1.5,1.6,3.5,1.2,6c-0.2,1.2-0.5,2.3-1,3.4s-1.2,2.1-2.1,3
	c-1.1,1.1-2.3,1.9-3.6,2.2s-2.6,0.5-3.9,0.5h-4l-1.3,6.2H48L52.7,36.6L52.7,36.6 M56.6,40.3l-2,9.8c0.1,0,0.3,0,0.4,0
	c0.2,0,0.3,0,0.5,0c2.1,0,3.9-0.2,5.3-0.6c1.4-0.5,2.4-2.1,2.9-4.8c0.4-2.3,0-3.6-1.2-4c-1.2-0.3-2.6-0.5-4.4-0.5
	c-0.3,0-0.5,0-0.8,0C57,40.3,56.8,40.3,56.6,40.3L56.6,40.3"/>
</svg>
