<?xml version="1.0" encoding="utf-8"?>
<!-- Generator: Adobe Illustrator 21.0.0, SVG Export Plug-In . SVG Version: 6.00 Build 0)  -->
<svg version="1.1" id="Layer_1" xmlns="http://www.w3.org/2000/svg" xmlns:xlink="http://www.w3.org/1999/xlink" x="0px" y="0px"
	 width="75px" height="90px" viewBox="0 0 75 90" style="enable-background:new 0 0 75 90;" xml:space="preserve">
<g>
	<polygon points="44.8,43.5 44.8,44.6 43.7,44.6 43.7,45.8 44.8,45.8 44.8,46.8 46,46.8 46,45.8 47.1,45.8 47.1,44.6 46,44.6 
		46,43.5 	"/>
	<polygon points="48.9,46.8 50,46.8 50,45.8 51.1,45.8 51.1,44.6 50,44.6 50,43.5 48.9,43.5 48.9,44.6 47.8,44.6 47.8,45.8 
		48.9,45.8 	"/>
	<path d="M27.4,45.2c0,5.4,4.4,9.8,9.8,9.8c3.7,0,6.9-2,8.6-5l-4.3-2.5c-0.8,1.5-2.4,2.6-4.3,2.6c-2.7,0-4.8-2.2-4.8-4.8
		s2.2-4.8,4.8-4.8c1.8,0,3.4,1,4.2,2.5l4.3-2.5c-1.7-3-4.9-5-8.5-5C31.8,35.4,27.4,39.8,27.4,45.2z"/>
	<path d="M37.2,26.8l-16,9.2v18.5l16,9.2l16-9.2V36L37.2,26.8z M51.7,53.6L37.2,62l-14.5-8.4V36.9l14.5-8.4l14.5,8.4V53.6z"/>
</g>
</svg>
