<?xml version="1.0" encoding="utf-8"?>
<!-- Generator: Adobe Illustrator 21.0.0, SVG Export Plug-In . SVG Version: 6.00 Build 0)  -->
<svg version="1.1" id="Layer_1" xmlns="http://www.w3.org/2000/svg" xmlns:xlink="http://www.w3.org/1999/xlink" x="0px" y="0px"
	 width="75px" height="90px" viewBox="0 0 75 90" style="enable-background:new 0 0 75 90;" xml:space="preserve">
<g id="carré">
	<g>
		<g>
			<path d="M38.4,4C31,4,24.9,10.1,24.9,17.5S31,31,38.4,31s13.5-6.1,13.5-13.5S45.8,4,38.4,4z M45.7,11.8c-0.6,0-1-0.3-1-1
				c0-0.2,0.1-0.4,0.2-0.6C45,10,45,10,45,9.8c0-0.3-0.6-0.4-0.7-0.4c-2,0.1-2.6,2.8-3,5L41,15.7c1.2,0.2,2,0,2.5-0.3
				c0.6-0.4-0.2-0.9-0.1-1.4c0.1-0.5,0.6-0.7,0.9-0.7c0.5,0,0.9,0.5,0.8,1c0,0.9-1.2,2.1-3.4,2c-0.2,0-0.6,0-0.8-0.1l-0.4,2.4
				c-0.4,1.8-0.9,4.2-2.7,6.4c-1.6,1.9-3.2,2.2-3.9,2.2c-1.4,0.1-2.2-0.6-2.2-1.6s0.8-1.4,1.4-1.4c0.7,0,1.2,0.5,1.2,1.1
				c0,0.5-0.2,0.6-0.4,0.7c-0.1,0.1-0.3,0.2-0.3,0.4c0,0.1,0.1,0.3,0.4,0.3c0.6,0,1-0.3,1.2-0.5c1.3-1.1,1.8-3,2.5-6.4l0.2-0.8
				c0.2-1.1,0.5-2.4,0.9-3.6c-1-0.7-1.4-1.5-2.7-1.9c-0.9-0.2-1.4,0-1.8,0.4c-0.4,0.6-0.3,1.3,0.2,1.7l0.7,0.8
				c0.9,1,1.3,1.8,1.1,2.7c-0.2,1.6-2.2,2.9-4.5,2.2c-1.9-0.6-2.3-2-2.1-2.7c0.2-0.6,0.7-0.8,1.3-0.6c0.6,0.2,0.8,0.9,0.6,1.4
				c0,0.1-0.1,0.2-0.1,0.2c-0.1,0.2-0.2,0.2-0.2,0.4c-0.2,0.4,0.4,0.7,0.8,0.8c0.9,0.2,1.8-0.2,1.9-0.9c0.2-0.6-0.2-1.1-0.4-1.3
				l-0.8-0.9c-0.4-0.4-1.2-1.6-0.8-3c0.2-0.5,0.5-1,1-1.4c1-0.7,2.2-0.9,3.2-0.6c1.4,0.4,2,1.3,2.9,2c0.5-1.4,1.1-2.7,2.1-3.9
				C41.8,9.8,43,9,44.4,9c1.4-0.1,2.4,0.6,2.4,1.6C46.7,10.9,46.5,11.7,45.7,11.8z"/>
		</g>
		<g>
			<g>
				<path d="M46.3,40.9c2.6,0,4.3,1.8,4.3,4.4c0,2.4-1.7,4.4-4.3,4.4c-2.5,0-4.3-2-4.3-4.4C42,42.8,43.7,40.9,46.3,40.9z M46.3,48.5
					c1.8,0,2.6-1.7,2.6-3.2c0-1.6-1-3.2-2.6-3.2c-1.7,0-2.6,1.6-2.6,3.2C43.6,46.8,44.5,48.5,46.3,48.5z"/>
			</g>
			<path d="M41.8,41.7v-0.6h-2.2v-0.8c0-1.1,0.2-2,1.5-2h0.1l0,0c0.4,0,0.7-0.3,0.7-0.6v-0.5c-0.3-0.1-0.6-0.1-1-0.1
				c-2.3,0-2.8,1.3-2.8,3.4v0.7h-2v0.7c0.1,0.3,0.3,0.6,0.7,0.6l0,0h1.3v7.2H39l0,0c0.4,0,0.6-0.3,0.7-0.6v-6.6h1.6
				C41.5,42.4,41.8,42.1,41.8,41.7z"/>
			<path d="M21.1,41.1L21.1,41.1c-0.3,0-0.7,0.2-0.8,0.5L18.2,48l0,0l-2.1-6.3c-0.1-0.3-0.5-0.5-0.8-0.5l0,0h-1.1l2.9,7.9
				c0.1,0.3,0.3,0.7,0.3,0.9s-0.5,2.1-1.8,2.1h-0.1c-0.4,0-0.6,0.2-0.7,0.6v0.5c0.3,0,0.6,0.1,1.1,0.1c2,0,2.7-1.9,3.2-3.5l3.1-8.6
				L21.1,41.1L21.1,41.1z"/>
			<path d="M11.3,42.8c-1.3-0.6-2.7-1.1-2.8-2.4c0-1.4,1.3-1.8,2.3-1.8l0,0c0.4,0,0.8,0,1.1,0.1l0,0c0.4,0,0.7-0.3,0.7-0.6v-0.5
				c-0.6-0.2-1.3-0.2-1.9-0.2c-2.2,0-3.8,1.1-3.8,3.2c0,1.8,1.2,2.5,2.5,3.1s2.7,1.1,2.7,2.6c0,1.6-1.5,2.1-2.5,2.1
				c-0.6,0-1.3-0.2-1.8-0.3c-0.3-0.1-0.6,0.2-0.7,0.7v0.5c0.8,0.2,1.6,0.4,2.4,0.4l0,0l0,0c2.4,0,4.3-1,4.3-3.5
				C13.8,44.3,12.6,43.5,11.3,42.8z"/>
			<path d="M34.7,49.5L34.7,49.5c0.3,0,0.6-0.2,0.7-0.5v-4.8c0-1.8-0.8-3.2-2.9-3.2c-0.8,0-2,0.4-2.6,1.6c-0.4-1.1-1.4-1.6-2.4-1.6
				c-1.2,0-2.1,0.4-2.7,1.4l0,0v-0.5c0-0.4-0.3-0.7-0.7-0.7l0,0h-0.7v8.4h0.8l0,0c0.4,0,0.7-0.3,0.7-0.7l0,0v-3.5
				c0-1.6,0.6-3.1,2.2-3.1c1.3,0,1.5,1.3,1.5,2.3v5h0.9l0,0c0.4,0,0.7-0.3,0.7-0.6v-3.6c0-1.6,0.6-3.1,2.2-3.1
				c1.3,0,1.5,1.3,1.5,2.3v5L34.7,49.5L34.7,49.5z"/>
			<path d="M58.7,49.5L58.7,49.5c0.4,0,0.7-0.3,0.7-0.7v-4.3c0-2.3-1-3.6-3.2-3.6c-1.2,0-2.3,0.6-2.8,1.5l0,0v-0.6l0,0
				c0-0.4-0.3-0.7-0.7-0.7l0,0h-0.8v8.4h0.9l0,0c0.4,0,0.7-0.3,0.7-0.6v-3.2c0-2,0.8-3.5,2.6-3.5c1.4,0.1,1.8,1,1.8,3v4.4L58.7,49.5
				L58.7,49.5z"/>
			<path d="M67,41.1L67,41.1c-0.3,0-0.7,0.2-0.8,0.5L64.1,48l0,0L62,41.7c-0.1-0.3-0.5-0.5-0.8-0.5l0,0h-1.1l2.9,7.9
				c0.1,0.3,0.3,0.7,0.3,0.9s-0.5,2.1-1.8,2.1h-0.1c-0.4,0-0.6,0.2-0.7,0.6v0.5c0.3,0,0.6,0.1,1.1,0.1c2,0,2.7-1.9,3.2-3.5l3.1-8.6
				L67,41.1L67,41.1z"/>
		</g>
	</g>
</g>
</svg>
