<?xml version="1.0" encoding="utf-8"?>
<!-- Generator: Adobe Illustrator 21.0.0, SVG Export Plug-In . SVG Version: 6.00 Build 0)  -->
<svg version="1.1" id="Layer_1" xmlns="http://www.w3.org/2000/svg" xmlns:xlink="http://www.w3.org/1999/xlink" x="0px" y="0px"
	 width="75px" height="90px" viewBox="0 0 75 90" style="enable-background:new 0 0 75 90;" xml:space="preserve">
<g>
	<path d="M5.2,41.8c-2,0-3.6,1.8-3.6,3.9s1.6,3.9,3.6,3.9s3.6-1.8,3.6-3.9C8.8,43.6,7.2,41.8,5.2,41.8z M5.2,47.4
		c-0.9,0-1.5-0.8-1.5-1.7S4.4,44,5.2,44c0.9,0,1.5,0.8,1.5,1.7S6,47.4,5.2,47.4z"/>
	<path d="M12.8,41.8c-0.7,0-1.3,0.2-1.9,0.6c-0.2-0.1-0.4-0.2-0.6-0.2c-0.6,0-1.1,0.5-1.1,1.1v7.9c0,0.6,0.5,1.1,1.1,1.1
		s1.1-0.5,1.1-1.1v-1.8c0.4,0.2,0.9,0.3,1.4,0.3c2,0,3.6-1.8,3.6-3.9C16.4,43.6,14.8,41.8,12.8,41.8z M12.8,47.4
		c-0.9,0-1.5-0.8-1.5-1.7S12,44,12.8,44s1.5,0.8,1.5,1.7S13.6,47.4,12.8,47.4z"/>
	<path d="M20.6,41.8c-2,0-3.6,1.8-3.6,3.9s1.6,3.9,3.6,3.9c1.6,0,3.3-1.2,3.3-1.7s-0.6-1-1.1-0.9c-0.6,0.1-1.2,0.6-1.9,0.5
		c-0.4,0-0.9-0.3-1.3-0.6c-0.2-0.2-0.4-0.5,0.2-0.5s2.2,0,2.2,0h0.8h1.3c0-0.2,0.1-0.5,0.1-0.7C24.2,43.6,22.6,41.8,20.6,41.8z
		 M21.8,44.9h-2.1c-0.4,0-0.2-0.2-0.2-0.3c0.3-0.4,0.7-0.6,1.2-0.6s0.9,0.3,1.2,0.7C22,44.8,22,44.9,21.8,44.9z"/>
	<path d="M28.4,41.8c-1,0-1.5,0.5-1.8,1.1c-0.1-0.5-0.5-0.9-1-0.9c-0.6,0-1.1,0.5-1.1,1.1v5.4c0,0.6,0.5,1.1,1.1,1.1
		s1.1-0.5,1.1-1.1V45c0,0,0-1.3,1.1-1.3c1.3,0,1.2,1,1.2,1v3.7c0,0.6,0.5,1.1,1.1,1.1s1.1-0.5,1.1-1.1v-4.3
		C31.1,43.6,30.9,41.8,28.4,41.8z"/>
	<path d="M36.1,47.2c-0.2,0.2-0.5,0.2-0.8,0.2c-0.9,0-1.5-0.8-1.5-1.7s0.7-1.7,1.5-1.7c0.3,0,0.6,0.1,0.8,0.2c0.3,0.1,0.9,0.4,1.3,0
		c0.4-0.4,0.7-1.2,0-1.8c-0.6-0.5-1.3-0.7-2.1-0.7c-2,0-3.6,1.8-3.6,3.9s1.6,3.9,3.6,3.9c0.8,0,1.6-0.3,2.2-0.8
		c0.5-0.4,0.4-1.3,0-1.7C37,46.8,36.4,46.9,36.1,47.2z"/>
	<path d="M44.1,42.2c-0.2,0-0.4,0.1-0.6,0.2c-0.5-0.4-1.2-0.6-1.9-0.6c-1.9,0-3.5,1.8-3.5,3.9c0,2.1,1.6,3.9,3.5,3.9
		c0.6,0,1.2-0.2,1.7-0.5c0.2,0.2,0.5,0.4,0.8,0.4c0.6,0,1-0.4,1-1v-5.4C45.1,42.7,44.7,42.2,44.1,42.2z M41.6,47.4
		c-0.8,0-1.5-0.8-1.5-1.7s0.7-1.7,1.5-1.7s1.5,0.8,1.5,1.7S42.5,47.4,41.6,47.4z"/>
	<path d="M49.3,41.8c-0.4,0-0.9,0.2-1.1,0.6c-0.1,0.1-0.3,0.2-0.5,0l-0.1-0.1l0,0l0,0c-0.2-0.1-0.4-0.2-0.7-0.2
		c-0.6,0-1.1,0.5-1.1,1.1v5.4c0,0.6,0.5,1.1,1.1,1.1s1.1-0.5,1.1-1.1v-3.3c0-0.6,0.9-1.1,1.3-1.1c0.6,0,1.1-0.5,1.1-1.1
		C50.4,42.3,49.9,41.8,49.3,41.8z"/>
	<path d="M54.6,42.1h-0.4v-1.4c0-0.6-0.5-1.1-1.1-1.1S52,40.1,52,40.7v1.4h-0.3c-0.5,0-1,0.4-1,1s0.4,1,1,1H52v4.6
		c0,0.6,0.5,1.1,1.1,1.1s1.1-0.5,1.1-1.1v-4.6h0.4c0.5,0,1-0.4,1-1S55.2,42.1,54.6,42.1z"/>
	<ellipse cx="62.6" cy="48.3" rx="1.2" ry="1.2"/>
	<ellipse cx="67.9" cy="48.3" rx="1.2" ry="1.2"/>
	<path d="M65.4,41.3l5,0.1c0,0,2,0,2,1c0,1.2-2.6,3.6-2.6,3.6s4.7-3.6,4.7-4.6s-3.4-1.1-3.4-1.1h-7.6c0,0-3.9,0-5.2-2
		C59.3,41.2,63.9,41.3,65.4,41.3z"/>
</g>
</svg>
