<?xml version="1.0" encoding="utf-8"?>
<!-- Generator: Adobe Illustrator 21.0.0, SVG Export Plug-In . SVG Version: 6.00 Build 0)  -->
<svg version="1.1" id="Layer_1" xmlns="http://www.w3.org/2000/svg" xmlns:xlink="http://www.w3.org/1999/xlink" x="0px" y="0px"
	 width="75px" height="90px" viewBox="0 0 75 90" style="enable-background:new 0 0 75 90;" xml:space="preserve">
<g>
	<path d="M21.7,26.6l2.9,33.2l13.3,3.7l13.3-3.7l3-33.3L21.7,26.6L21.7,26.6z M49.8,58.7L37.8,62l-12-3.3l-2.6-30.5h29.1L49.8,58.7z
		"/>
	<polygon points="33.8,23.7 35.8,23.7 35.8,19.5 37.7,19.5 37.7,17.5 35.8,17.5 33.8,17.5 33.8,17.5 32,17.5 32,19.5 33.8,19.5 	"/>
	<polygon points="27.2,21.6 29,21.6 29,23.7 31,23.7 31,17.5 29,17.5 29,19.5 27.2,19.5 27.2,17.5 25,17.5 25,23.7 27.2,23.7 	"/>
	<polygon points="40.7,20.6 42.2,22.8 43.6,20.6 43.6,23.7 45.7,23.7 45.7,17.5 43.6,17.5 43.6,17.5 43.6,17.5 42.2,19.5 40.7,17.5 
		38.5,17.5 38.5,23.7 40.7,23.7 	"/>
	<polygon points="51.6,21.6 48.8,21.6 48.8,17.5 46.7,17.5 46.7,21.6 46.7,21.6 46.7,23.7 51.6,23.7 	"/>
	<polygon points="28.8,45.7 42.8,45.7 42.4,51 37.8,52.3 33.3,51.1 33,47.8 29,47.8 29.5,54.2 38,56.5 46.3,54.1 47.3,41.6 
		32.5,41.6 32.2,37.3 47.7,37.3 48.3,33.3 27.7,33.3 	"/>
</g>
</svg>
