<?xml version="1.0" encoding="utf-8"?>
<!-- Generator: Adobe Illustrator 21.0.0, SVG Export Plug-In . SVG Version: 6.00 Build 0)  -->
<svg version="1.1" id="Layer_1" xmlns="http://www.w3.org/2000/svg" xmlns:xlink="http://www.w3.org/1999/xlink" x="0px" y="0px"
	 width="75px" height="90px" viewBox="0 0 75 90" style="enable-background:new 0 0 75 90;" xml:space="preserve">
<g>
	<path d="M36.9,31c-0.7,0.5-1.8,1.1-3.3,0.8c-0.7-0.1-1.6-0.4-1.6-1.1c0-0.9,1.5-0.8,2.2-1.2c0.4-0.3,0.7-0.5,0.8-0.9
		c-0.5-0.1-1.1-0.1-1.5-0.4c-0.5,0.5-1.1,1.1-1.6,1.7c-0.7,0.7-1.1,1.8-2.5,1.5c-0.7-0.1-1.2-0.7-1.5-1.2c-0.9-1.2-1.6-3.2-2.1-5
		s-1.2-3.8-1.3-5.8c-0.3-3.2,0.9-5.5,3.2-6.3c1.8-0.7,4.5-0.3,6.7,0.5c1.2-0.8,3.6-1.2,5.3-0.7c2.4-0.9,5.5-0.7,7.4,0.5
		c1.5,0.8,2.4,1.7,2.5,3.6c0.1,2.2-0.7,4.4-1.3,6.1c-0.7,1.8-1.6,3.6-2.5,5c0.7,0.8,3.7-0.7,4,0.4c0.3,0.8-0.9,1.5-1.6,1.7
		c-1.2,0.5-2.5,0.8-3.8,0.4c-0.3,2-0.4,3.8-0.8,5.4c-0.4,1.6-1.6,2.5-3.4,2.6C36.5,39,36.8,34.6,36.9,31L36.9,31z M42.5,37
		c0.8-0.8,0.9-2.8,1.1-4.4c0.1-0.5,0.1-1.3,0.3-2c0.1-1.5,0-2.4,1.2-2.8c-0.7-0.7-1.2-1.8-1.8-3c-0.5-1.1-1.2-2.4-1.3-3.6
		c-0.1-2.1,1.2-2.8,3.2-2.5c-1.2-3-3.7-5.8-8.1-5.4c-3,0.3-4.2,3-4.6,6.1c0.8-0.4,2.4-0.9,3.4-0.4c1.2,0.5,1.5,2.5,1.3,4.2
		c0,1.8-1.1,3.3-1.3,4.6c1.8,0,1.7,1.5,1.6,3c0,2.2-0.1,5.4,1.1,6.5C39.7,38.3,41.7,37.8,42.5,37L42.5,37z M34.8,31
		c0.8-0.1,2.1-0.8,2.1-1.6c0-0.3-0.3-0.8-0.7-0.8s-0.7,1-1.2,1.4c-0.7,0.5-1.3,0.3-2,0.7C33.4,31,34,31.2,34.8,31L34.8,31z
		 M31.5,29.3c0.3-0.3,0.5-0.5,0.8-0.8s0.4-0.5,0.7-0.8c-0.7-0.5-1.2-1.5-1.3-2.6c-0.1-1.1,0.1-1.8,0.1-2.9c0-0.3,0-0.7,0-0.9
		c-0.1-2.1,0.3-4,0.9-5.3c0.4-0.8,0.8-1.3,1.2-1.8c-0.8-0.1-1.3-0.4-2.1-0.5c-0.5-0.1-1.1-0.1-1.7-0.1c-0.3,0-0.4,0-0.7,0
		c-2.9,0.3-4.2,2.5-4,5.9c0,0.5,0.1,1.1,0.3,1.6c0.3,1.6,0.8,3.3,1.3,4.8c0.3,0.9,0.7,1.8,1.1,2.8c0.3,0.4,0.5,0.9,0.8,1.3
		c0.3,0.3,0.5,0.5,0.8,0.7c0.1,0,0.1,0,0.3,0C30.6,30.8,31.1,29.8,31.5,29.3L31.5,29.3z M48.8,28.9c-0.7,0.1-1.5,0.3-2.4,0.3
		c-0.4,0-0.8-0.4-1.2-0.4c-0.5,0-0.7,0.5-0.7,1.1C46,30.4,48.2,29.7,48.8,28.9L48.8,28.9z M36.5,23.2c0-1.1-0.1-2.6-0.7-3.2
		c-0.8-0.7-3.2,0.1-3.4,0.7c0,0.3,0,0.7,0,1.1c0,1.2-0.3,2.4-0.1,3.3c0.1,1.7,1.5,2.5,2.8,2.6C35.5,26.3,36.5,25.2,36.5,23.2
		L36.5,23.2z M46,26.4c0.7-1.1,1.2-2.2,1.7-3.7c0.3-0.9,0.7-1.8,0.9-2.9c0.1-0.8,0.3-1.5,0.3-2.2c0-0.3,0-0.5,0-0.8
		c0-0.9-0.7-1.7-1.3-2.2c-0.3-0.1-0.5-0.4-0.8-0.5c-0.9-0.5-2.1-0.8-3.4-0.9c-0.3,0-0.5,0-0.8,0c-0.5,0-1.1,0-1.6,0.1
		c1.2,0.7,2.1,1.3,3,2.4c0.8,0.9,1.7,2.2,1.8,3.6c0,0.7-0.1,1.5-0.3,2.2c0,0.3,0,0.5,0,0.8c0,0.9,0.3,1.8,0.3,2.6
		c0,0.7-0.3,1.3-0.4,1.8c0,0.1-0.1,0.4-0.1,0.5C45.7,27.1,45.9,26.7,46,26.4L46,26.4z M45,22.2c0-0.9,0.3-1.7,0.3-2.5
		c-1.6-0.1-2.8,0.1-2.5,1.8c0.1,1.7,1.7,3.8,2.2,4.9C45.5,25.1,45,23.6,45,22.2L45,22.2z"/>
	<path d="M44.5,20.1c0.1,0.8-1.2,0.9-1.3,0.3C43.1,19.9,44.2,19.8,44.5,20.1L44.5,20.1z"/>
	<path d="M35.9,20.6c0.1,0.9-1.6,0.7-1.5-0.1c0-0.1,0.1-0.1,0.3-0.1C35.1,20.1,35.9,20.2,35.9,20.6L35.9,20.6z"/>
</g>
<g>
	<path id="path5731_1_" d="M17.9,43.4c0,0.8-0.2,1.4-0.7,1.8c-0.5,0.5-1.1,0.7-1.9,0.7h-3.2v3.7h-0.9V41h4.3c0.8,0,1.3,0.2,1.7,0.7
		C17.7,42.1,17.9,42.7,17.9,43.4 M17,43.4c0-1.2-0.6-1.8-1.7-1.8h-3.2v3.6h3C16.4,45.2,17,44.6,17,43.4"/>
	<path id="path5733_1_" d="M22.1,47.3c0,0.8-0.2,1.4-0.6,1.7c-0.5,0.5-1.1,0.7-2,0.7c-0.4,0-0.8-0.1-1.1-0.2
		c-0.3-0.2-0.5-0.3-0.8-0.5c-0.4-0.5-0.6-1.1-0.6-1.8s0.2-1.4,0.6-1.7c0.5-0.5,1.1-0.8,1.9-0.8s1.5,0.2,1.9,0.7
		C21.9,46,22.1,46.6,22.1,47.3 M21.5,47.3c0-1.3-0.6-2-1.9-2c-0.6,0-1.1,0.2-1.4,0.5c-0.2,0.2-0.3,0.4-0.4,0.6
		c-0.1,0.2-0.2,0.5-0.2,0.8c0,0.6,0.2,1.1,0.5,1.4c0.3,0.4,0.8,0.5,1.4,0.5c0.7,0,1.1-0.2,1.4-0.5c0.2-0.2,0.3-0.4,0.3-0.6
		C21.5,47.9,21.5,47.6,21.5,47.3"/>
	<path id="path5735_1_" d="M27.1,48.4c0,1-0.7,1.4-2.1,1.4c-0.5,0-0.8,0-1.1-0.1c-0.3-0.1-0.5-0.2-0.8-0.3c-0.2-0.1-0.2-0.3-0.4-0.5
		c-0.1-0.2-0.2-0.5-0.2-0.7h0.7c0,0.4,0.2,0.7,0.4,0.8c0.2,0.2,0.7,0.3,1.4,0.3c1,0,1.5-0.3,1.5-0.9c0-0.4-0.2-0.6-0.5-0.8
		c-0.1,0-0.5-0.1-1.2-0.2c-0.8-0.1-1.2-0.2-1.4-0.3c-0.4-0.2-0.6-0.5-0.6-1s0.2-0.8,0.5-1.1c0.2-0.1,0.4-0.2,0.7-0.2
		c0.2-0.1,0.5-0.1,0.9-0.1c1.4,0,2,0.5,2,1.5h-0.6c0-0.8-0.5-1.1-1.4-1.1c-0.5,0-0.8,0.1-1.1,0.2c-0.2,0.2-0.4,0.4-0.4,0.7
		s0.2,0.5,0.5,0.6c0.2,0.1,0.6,0.2,1.3,0.2c0.6,0.1,1.1,0.2,1.3,0.3C26.9,47.5,27.1,47.8,27.1,48.4"/>
	<path id="path5737_1_" d="M30,49.6c-0.1,0-0.2,0-0.3,0.1c-0.1,0-0.2,0-0.2,0c-0.5,0-0.8-0.1-0.9-0.2c-0.2-0.2-0.3-0.5-0.3-0.8v-3.2
		h-0.8V45h0.8v-1.5h0.6V45H30v0.5h-1.1v3.1c0,0.2,0.1,0.4,0.2,0.5s0.3,0.2,0.5,0.2c0.1,0,0.1,0,0.2,0s0.2,0,0.2-0.1L30,49.6"/>
	<path id="path5739_1_" d="M34.8,49.5c0,1.4-0.8,2.1-2.3,2.1c-0.8,0-1.4-0.2-1.7-0.4c-0.3-0.2-0.5-0.6-0.5-1.1h0.6
		c0.1,0.4,0.2,0.6,0.4,0.8c0.2,0.2,0.7,0.3,1.3,0.3s1.1-0.2,1.4-0.5c0.3-0.3,0.5-0.7,0.5-1.2v-0.8c-0.4,0.6-1.1,0.9-2,0.9
		c-0.8,0-1.4-0.2-1.7-0.6c-0.2-0.2-0.3-0.5-0.5-0.8c-0.1-0.3-0.2-0.6-0.2-1c0-0.8,0.2-1.3,0.6-1.7c0.5-0.5,1-0.7,1.8-0.7
		c0.5,0,1,0.1,1.3,0.3c0.2,0.1,0.3,0.3,0.6,0.6v-0.8H35L34.8,49.5 M34.2,47.2c0-0.5-0.2-1-0.5-1.4c-0.3-0.3-0.8-0.5-1.4-0.5
		s-1.1,0.2-1.4,0.5s-0.5,0.8-0.5,1.4c0,1.3,0.6,1.9,1.9,1.9c0.3,0,0.5-0.1,0.8-0.2c0.2-0.1,0.4-0.2,0.5-0.4
		C34.1,48.2,34.2,47.8,34.2,47.2"/>
	<path id="path5741_1_" d="M38.4,45.5c-0.2,0-0.4-0.1-0.5-0.1c-1,0-1.5,0.7-1.5,2v2.3h-0.6v-4.6h0.6v0.8l0,0
		c0.1-0.3,0.2-0.6,0.5-0.8c0.2-0.2,0.6-0.2,1.1-0.2c0.1,0,0.2,0,0.2,0c0.1,0,0.2,0,0.2,0V45.5"/>
	<path id="path5743_1_" d="M43.3,47.5H39c0,0.5,0.2,1,0.5,1.3c0.3,0.4,0.8,0.6,1.4,0.6c0.9,0,1.4-0.4,1.7-1.2h0.7
		c-0.1,0.5-0.3,0.8-0.7,1.1c-0.2,0.2-0.5,0.3-0.8,0.4c-0.3,0.1-0.6,0.2-0.9,0.2c-0.8,0-1.4-0.2-1.9-0.8c-0.5-0.5-0.6-1.1-0.6-1.8
		s0.2-1.4,0.7-1.7c0.5-0.5,1.1-0.7,1.8-0.7c0.5,0,0.8,0.1,1.1,0.2c0.3,0.2,0.6,0.3,0.8,0.5C43.1,46,43.3,46.6,43.3,47.5 M42.7,47
		c0-0.5-0.2-0.8-0.5-1.2s-0.8-0.5-1.3-0.5c-0.3,0-0.5,0.1-0.8,0.2c-0.2,0.1-0.5,0.2-0.6,0.4c-0.3,0.3-0.5,0.7-0.5,1.2h3.7"/>
	<path id="path5724_1_" d="M51.2,47.2c0,1.7-1.1,2.5-3.3,2.5c-1.4,0-2.3-0.3-2.9-0.8c-0.5-0.5-0.8-1.2-0.8-2.1h0.9
		c0,1.5,0.9,2.3,2.8,2.3c0.9,0,1.5-0.2,2-0.5c0.3-0.3,0.5-0.7,0.5-1.3s-0.2-1-0.7-1.2c-0.2-0.2-0.9-0.3-1.9-0.5
		c-1.3-0.2-2.1-0.5-2.5-0.7c-0.5-0.4-0.8-0.9-0.8-1.7s0.2-1.4,0.7-1.7c0.5-0.4,1.4-0.6,2.6-0.6c2.2,0,3.2,0.9,3.2,2.6h-0.9
		c0-1.3-0.8-2-2.4-2c-0.8,0-1.4,0.2-1.8,0.4c-0.4,0.3-0.5,0.7-0.5,1.2s0.2,1,0.7,1.2c0.2,0.2,1,0.3,2.2,0.5c1.1,0.2,1.9,0.5,2.3,0.7
		C50.9,45.8,51.2,46.4,51.2,47.2"/>
	<path id="path5726_1_" d="M60.1,49.6l-0.5,0.6l-1.4-1.1c-0.3,0.2-0.6,0.3-1.1,0.4c-0.4,0.1-0.9,0.2-1.4,0.2c-1.4,0-2.5-0.4-3.2-1.2
		c-0.8-0.8-1.2-1.9-1.2-3.2c0-1.4,0.4-2.5,1.2-3.2c0.8-0.8,1.9-1.2,3.2-1.2c0.7,0,1.4,0.1,1.9,0.3s1.1,0.5,1.4,1
		c0.8,0.8,1.1,1.9,1.1,3.2c0,0.8-0.1,1.4-0.3,2c-0.2,0.5-0.6,1.1-1.1,1.4L60.1,49.6 M59.3,45.2c0-0.6-0.1-1.1-0.2-1.6
		c-0.2-0.5-0.4-0.8-0.8-1.2c-0.6-0.7-1.5-1.1-2.6-1.1s-2,0.3-2.6,1c-0.7,0.7-1,1.6-1,2.8c0,1.1,0.3,2,1,2.8c0.7,0.7,1.5,1.1,2.6,1.1
		c0.5,0,1-0.1,1.4-0.2c0.5-0.2,0.8-0.4,1.1-0.8C58.9,47.4,59.3,46.4,59.3,45.2"/>
	<path id="path5728_1_" d="M66.8,49.5h-6.1V41h0.8v7.7h5.3V49.5"/>
</g>
</svg>
