<?xml version="1.0" encoding="utf-8"?>
<!-- Generator: Adobe Illustrator 21.0.0, SVG Export Plug-In . SVG Version: 6.00 Build 0)  -->
<svg version="1.1" id="Layer_1" xmlns="http://www.w3.org/2000/svg" xmlns:xlink="http://www.w3.org/1999/xlink" x="0px" y="0px"
	 width="75px" height="90px" viewBox="0 0 75 90" style="enable-background:new 0 0 75 90;" xml:space="preserve">
<g>
	<path d="M26.4,49.4c0,0-1.4,0.2-1.4-1V36.2c0,0,0.2-2-1.7-2h-1.7v14.6c0,0-0.1,2.4,1.4,3c1.6,0.6,3.6-0.1,3.6-0.1s0.1-0.6,0-1.4
		C26.6,49.5,26.4,49.4,26.4,49.4z"/>
	<path d="M36.4,43.8c-0.6-1.6-2.3-3.1-4.3-3.1s-3.6,1.8-4,2.7c-0.5,0.9-1.4,5.5,0.6,7.5c3.1,3.1,7.6,0.2,7.7,0.1c0-0.1,0-0.5-0.2-1
		s-0.6-0.9-0.6-1c-0.2,0-2.7,0.9-3.7,0.4c-0.9-0.5-1-1.8-1-1.8h5.6C36.4,47.7,36.9,45.3,36.4,43.8z M33.6,45.5h-2.8
		c0,0-0.2-2.3,1.4-2.3C33.7,43.3,33.6,45.5,33.6,45.5z"/>
	<path d="M41.4,43.7c0.8-1.1,3.7,0.5,3.7,0.5s0.3-0.3,0.7-1.1s0.2-1.2,0.2-1.2s-4.1-2.9-7.2,0.3c-1.4,1.4-1,3.4,0.3,4.5
		c1.6,1.4,4.5,1.4,3.6,2.7c-0.9,1.2-4-0.5-4-0.5s-0.4,0.3-0.7,1s-0.3,1.3-0.3,1.3s4.2,2.3,7.2,0.2c1.5-1.1,1.7-3.3,0.6-4.7
		C44.1,44.9,40.6,44.8,41.4,43.7z"/>
	<path d="M50.8,43.7c0.8-1.1,3.7,0.5,3.7,0.5s0.3-0.3,0.7-1.1s0.2-1.2,0.2-1.2s-4.1-2.9-7.2,0.3c-1.4,1.4-1,3.4,0.3,4.5
		c1.6,1.4,4.5,1.4,3.6,2.7c-0.9,1.2-4-0.5-4-0.5s-0.4,0.3-0.7,1s-0.3,1.3-0.3,1.3s4.2,2.3,7.2,0.2c1.5-1.1,1.7-3.3,0.6-4.7
		C53.5,44.9,50,44.8,50.8,43.7z"/>
	<path d="M16.3,35c-0.5,0.5-0.8,1.5-0.8,2.9c0,0.5,0,0.9,0,1.2c0,0.4,0.1,0.7,0.1,1s0.1,0.7,0.1,1s0,0.7,0,1.1c0,0.2,0,0.4-0.1,0.7
		c-0.1,0.2-0.2,0.4-0.4,0.6s-0.4,0.3-0.7,0.4c-0.3,0.1-0.6,0.2-1,0.2v2.2c0.4,0,0.8,0.1,1,0.2c0.3,0.1,0.5,0.3,0.7,0.4
		c0.2,0.2,0.3,0.4,0.4,0.6s0.1,0.4,0.1,0.7c0,0.4,0,0.8,0,1.1s-0.1,0.7-0.1,1s-0.1,0.7-0.1,1c0,0.4,0,0.8,0,1.2
		c0,1.4,0.3,2.4,0.8,2.9s1.3,0.8,2.5,0.8h1.6v-2h-0.5c-0.5,0-0.9-0.1-1.1-0.4c-0.2-0.3-0.3-0.7-0.3-1.4s0-1.4,0.1-2
		c0-0.7,0.1-1.4,0.1-2.2c0-1-0.2-1.7-0.5-2.1s-0.8-0.7-1.4-0.9v-0.1c0.6-0.2,1.1-0.5,1.4-0.9s0.5-1.1,0.5-2.1c0-0.8,0-1.5-0.1-2.2
		c0-0.7-0.1-1.3-0.1-2s0.1-1.2,0.3-1.4c0.2-0.2,0.5-0.4,1.1-0.4h0.5v-2h-1.6C17.6,34.2,16.8,34.5,16.3,35z"/>
	<path d="M61.4,44c-0.3-0.1-0.5-0.3-0.7-0.4c-0.2-0.2-0.3-0.4-0.4-0.6c-0.1-0.2-0.1-0.4-0.1-0.7c0-0.4,0-0.8,0-1.1s0.1-0.7,0.1-1
		s0.1-0.7,0.1-1c0-0.4,0-0.8,0-1.2c0-1.4-0.3-2.4-0.8-2.9s-1.3-0.8-2.5-0.8h-1.6v2H56c0.5,0,0.9,0.1,1.1,0.4
		c0.2,0.2,0.3,0.7,0.3,1.4s0,1.4-0.1,2c0,0.7-0.1,1.4-0.1,2.2c0,1,0.2,1.7,0.5,2.1s0.8,0.7,1.4,0.9v0.1c-0.6,0.2-1.1,0.5-1.4,0.9
		c-0.3,0.4-0.5,1.1-0.5,2.1c0,0.8,0,1.5,0.1,2.2c0,0.7,0.1,1.3,0.1,2s-0.1,1.2-0.3,1.4s-0.5,0.4-1.1,0.4h-0.5v2h1.6
		c1.1,0,1.9-0.3,2.5-0.8c0.5-0.5,0.8-1.5,0.8-2.9c0-0.5,0-0.9,0-1.2c0-0.4-0.1-0.7-0.1-1s-0.1-0.7-0.1-1s0-0.7,0-1.1
		c0-0.2,0-0.4,0.1-0.7c0.1-0.2,0.2-0.4,0.4-0.6c0.2-0.2,0.4-0.3,0.7-0.4s0.6-0.2,1-0.2v-2.2C62,44.2,61.7,44.1,61.4,44z"/>
</g>
</svg>
